HIERARCHY
ROOT Hips
{
	OFFSET -0.0000 111.0000 0.0000
	CHANNELS 6 Xposition Yposition Zposition Xrotation Yrotation Zrotation
	JOINT RightUpperLeg
	{
		OFFSET -10.5000 -8.8000 0.0000
		CHANNELS 3 Xrotation Yrotation Zrotation
		JOINT RightLowerLeg
		{
			OFFSET -0.0000 -45.6000 0.0000
			CHANNELS 3 Xrotation Yrotation Zrotation
			JOINT RightFoot
			{
				OFFSET -0.0000 -46.7000 0.0000
				CHANNELS 3 Xrotation Yrotation Zrotation
				JOINT RightToe
				{
					OFFSET -0.0000 -8.0000 12.1000
					CHANNELS 3 Xrotation Yrotation Zrotation
					End Site
					{
						OFFSET -0.0000 0.0000 2.4200
					}
				}
			}
		}
	}
	JOINT LeftUpperLeg
	{
		OFFSET 10.5000 -8.8000 0.0000
		CHANNELS 3 Xrotation Yrotation Zrotation
		JOINT LeftLowerLeg
		{
			OFFSET -0.0000 -45.6000 0.0000
			CHANNELS 3 Xrotation Yrotation Zrotation
			JOINT LeftFoot
			{
				OFFSET -0.0000 -46.7000 0.0000
				CHANNELS 3 Xrotation Yrotation Zrotation
				JOINT LeftToe
				{
					OFFSET -0.0000 -8.0000 12.1000
					CHANNELS 3 Xrotation Yrotation Zrotation
					End Site
					{
						OFFSET -0.0000 0.0000 2.4200
					}
				}
			}
		}
	}
	JOINT Spine
	{
		OFFSET -0.0000 9.7000 0.0000
		CHANNELS 3 Xrotation Yrotation Zrotation
		JOINT Spine1
		{
			OFFSET -0.0000 11.2000 0.0000
			CHANNELS 3 Xrotation Yrotation Zrotation
			JOINT Spine2
			{
				OFFSET -0.0000 12.1000 0.0000
				CHANNELS 3 Xrotation Yrotation Zrotation
				JOINT Spine3
				{
					OFFSET -0.0000 11.7000 1.2000
					CHANNELS 3 Xrotation Yrotation Zrotation
					JOINT Neck
					{
						OFFSET -0.0000 12.0000 -1.2000
						CHANNELS 3 Xrotation Yrotation Zrotation
						JOINT Head
						{
							OFFSET -0.0000 10.0000 0.0000
							CHANNELS 3 Xrotation Yrotation Zrotation
							End Site
							{
								OFFSET -0.0000 20.0000 0.0000
							}
						}
					}
					JOINT RightShoulder
					{
						OFFSET -4.9000 4.0000 -1.2000
						CHANNELS 3 Xrotation Yrotation Zrotation
						JOINT RightUpperArm
						{
							OFFSET -15.6000 0.0000 0.0000
							CHANNELS 3 Xrotation Yrotation Zrotation
							JOINT RightLowerArm
							{
								OFFSET -25.9000 0.0000 0.0000
								CHANNELS 3 Xrotation Yrotation Zrotation
								JOINT RightHand
								{
									OFFSET -28.4000 0.0000 0.0000
									CHANNELS 3 Xrotation Yrotation Zrotation
									JOINT RightThumbFinger
									{
										OFFSET -3.4000 0.3000 4.2000
										CHANNELS 3 Xrotation Yrotation Zrotation
										JOINT RightThumbFinger1
										{
											OFFSET -3.5000 0.0000 3.5000
											CHANNELS 3 Xrotation Yrotation Zrotation
											JOINT RightThumbFinger2
											{
												OFFSET -2.5000 0.0000 2.4000
												CHANNELS 3 Xrotation Yrotation Zrotation
												End Site
												{
													OFFSET -2.1450 0.0000 2.0592
												}
											}
										}
									}
									JOINT RightIndexFinger
									{
										OFFSET -4.4000 0.7000 2.6000
										CHANNELS 3 Xrotation Yrotation Zrotation
										JOINT RightIndexFinger1
										{
											OFFSET -7.0000 -0.1000 1.4000
											CHANNELS 3 Xrotation Yrotation Zrotation
											JOINT RightIndexFinger2
											{
												OFFSET -5.0000 -0.2000 0.0000
												CHANNELS 3 Xrotation Yrotation Zrotation
												JOINT RightIndexFinger3
												{
													OFFSET -2.7000 -0.2000 0.0000
													CHANNELS 3 Xrotation Yrotation Zrotation
													End Site
													{
														OFFSET -2.3814 -0.1764 0.0000
													}
												}
											}
										}
									}
									JOINT RightMiddleFinger
									{
										OFFSET -4.6000 0.7000 1.0000
										CHANNELS 3 Xrotation Yrotation Zrotation
										JOINT RightMiddleFinger1
										{
											OFFSET -7.0000 -0.1000 0.4000
											CHANNELS 3 Xrotation Yrotation Zrotation
											JOINT RightMiddleFinger2
											{
												OFFSET -5.3000 -0.3000 0.0000
												CHANNELS 3 Xrotation Yrotation Zrotation
												JOINT RightMiddleFinger3
												{
													OFFSET -3.4000 -0.3000 0.0000
													CHANNELS 3 Xrotation Yrotation Zrotation
													End Site
													{
														OFFSET -2.9988 -0.2646 0.0000
													}
												}
											}
										}
									}
									JOINT RightRingFinger
									{
										OFFSET -4.5000 0.8000 -0.1000
										CHANNELS 3 Xrotation Yrotation Zrotation
										JOINT RightRingFinger1
										{
											OFFSET -6.3000 -0.1000 -0.7000
											CHANNELS 3 Xrotation Yrotation Zrotation
											JOINT RightRingFinger2
											{
												OFFSET -4.7000 -0.4000 0.0000
												CHANNELS 3 Xrotation Yrotation Zrotation
												JOINT RightRingFinger3
												{
													OFFSET -3.2000 -0.3000 0.0000
													CHANNELS 3 Xrotation Yrotation Zrotation
													End Site
													{
														OFFSET -2.8224 -0.2646 0.0000
													}
												}
											}
										}
									}
									JOINT RightPinkyFinger
									{
										OFFSET -4.3000 0.7000 -1.6000
										CHANNELS 3 Xrotation Yrotation Zrotation
										JOINT RightPinkyFinger1
										{
											OFFSET -5.6000 -0.1000 -1.5000
											CHANNELS 3 Xrotation Yrotation Zrotation
											JOINT RightPinkyFinger2
											{
												OFFSET -3.7000 -0.2000 0.0000
												CHANNELS 3 Xrotation Yrotation Zrotation
												JOINT RightPinkyFinger3
												{
													OFFSET -2.4000 -0.1000 0.0000
													CHANNELS 3 Xrotation Yrotation Zrotation
													End Site
													{
														OFFSET -2.1168 -0.0882 0.0000
													}
												}
											}
										}
									}
								}
							}
						}
					}
					JOINT LeftShoulder
					{
						OFFSET 4.9000 4.0000 -1.2000
						CHANNELS 3 Xrotation Yrotation Zrotation
						JOINT LeftUpperArm
						{
							OFFSET 15.6000 0.0000 0.0000
							CHANNELS 3 Xrotation Yrotation Zrotation
							JOINT LeftLowerArm
							{
								OFFSET 25.9000 0.0000 0.0000
								CHANNELS 3 Xrotation Yrotation Zrotation
								JOINT LeftHand
								{
									OFFSET 28.4000 0.0000 0.0000
									CHANNELS 3 Xrotation Yrotation Zrotation
									JOINT LeftThumbFinger
									{
										OFFSET 3.4000 0.3000 4.2000
										CHANNELS 3 Xrotation Yrotation Zrotation
										JOINT LeftThumbFinger1
										{
											OFFSET 3.5000 0.0000 3.5000
											CHANNELS 3 Xrotation Yrotation Zrotation
											JOINT LeftThumbFinger2
											{
												OFFSET 2.5000 0.0000 2.5000
												CHANNELS 3 Xrotation Yrotation Zrotation
												End Site
												{
													OFFSET 2.1450 0.0000 2.1450
												}
											}
										}
									}
									JOINT LeftIndexFinger
									{
										OFFSET 4.4000 0.7000 2.6000
										CHANNELS 3 Xrotation Yrotation Zrotation
										JOINT LeftIndexFinger1
										{
											OFFSET 7.0000 -0.1000 1.4000
											CHANNELS 3 Xrotation Yrotation Zrotation
											JOINT LeftIndexFinger2
											{
												OFFSET 5.0000 -0.2000 0.0000
												CHANNELS 3 Xrotation Yrotation Zrotation
												JOINT LeftIndexFinger3
												{
													OFFSET 2.7000 -0.2000 0.0000
													CHANNELS 3 Xrotation Yrotation Zrotation
													End Site
													{
														OFFSET 2.3814 -0.1764 0.0000
													}
												}
											}
										}
									}
									JOINT LeftMiddleFinger
									{
										OFFSET 4.6000 0.7000 1.0000
										CHANNELS 3 Xrotation Yrotation Zrotation
										JOINT LeftMiddleFinger1
										{
											OFFSET 7.0000 -0.1000 0.4000
											CHANNELS 3 Xrotation Yrotation Zrotation
											JOINT LeftMiddleFinger2
											{
												OFFSET 5.3000 -0.3000 0.0000
												CHANNELS 3 Xrotation Yrotation Zrotation
												JOINT LeftMiddleFinger3
												{
													OFFSET 3.4000 -0.3000 0.0000
													CHANNELS 3 Xrotation Yrotation Zrotation
													End Site
													{
														OFFSET 2.9988 -0.2646 0.0000
													}
												}
											}
										}
									}
									JOINT LeftRingFinger
									{
										OFFSET 4.5000 0.8000 -0.1000
										CHANNELS 3 Xrotation Yrotation Zrotation
										JOINT LeftRingFinger1
										{
											OFFSET 6.3000 -0.1000 -0.7000
											CHANNELS 3 Xrotation Yrotation Zrotation
											JOINT LeftRingFinger2
											{
												OFFSET 4.7000 -0.3000 0.0000
												CHANNELS 3 Xrotation Yrotation Zrotation
												JOINT LeftRingFinger3
												{
													OFFSET 3.2000 -0.2000 0.0000
													CHANNELS 3 Xrotation Yrotation Zrotation
													End Site
													{
														OFFSET 2.8224 -0.1764 0.0000
													}
												}
											}
										}
									}
									JOINT LeftPinkyFinger
									{
										OFFSET 4.3000 0.7000 -1.6000
										CHANNELS 3 Xrotation Yrotation Zrotation
										JOINT LeftPinkyFinger1
										{
											OFFSET 5.6000 -0.1000 -1.5000
											CHANNELS 3 Xrotation Yrotation Zrotation
											JOINT LeftPinkyFinger2
											{
												OFFSET 3.7000 -0.2000 0.1000
												CHANNELS 3 Xrotation Yrotation Zrotation
												JOINT LeftPinkyFinger3
												{
													OFFSET 2.4000 -0.1000 -0.1000
													CHANNELS 3 Xrotation Yrotation Zrotation
													End Site
													{
														OFFSET 2.1168 -0.0882 -0.0882
													}
												}
											}
										}
									}
								}
							}
						}
					}
				}
			}
		}
	}
}
MOTION
Frames: 5
Frame Time: 0.010417
-0.00 111.00 0.00 -0.00 0.00 0.00 -0.00 0.00 -0.00 -0.00 0.00 -0.00 -0.00 0.00 -0.00 -0.00 0.00 -0.00 -0.00 0.00 -0.00 -0.00 0.00 -0.00 -0.00 0.00 -0.00 -0.00 0.00 -0.00 -0.00 0.00 -0.00 -0.00 0.00 -0.00 -0.00 0.00 -0.00 -0.00 0.00 -0.00 -0.00 0.00 -0.00 -0.00 0.00 -0.00 -0.00 0.00 -0.00 -0.00 0.00 -0.00 -0.00 0.00 -0.00 -0.00 0.00 -0.00 -0.00 0.00 -0.00 -0.00 0.00 -0.00 -0.00 0.00 -0.00 -0.00 0.00 -0.00 -0.00 0.00 -0.00 -0.00 0.00 -0.00 -0.00 0.00 -0.00 -0.00 0.00 -0.00 -0.00 0.00 -0.00 -0.00 0.00 -0.00 -0.00 0.00 -0.00 -0.00 0.00 -0.00 -0.00 0.00 -0.00 -0.00 0.00 -0.00 -0.00 0.00 -0.00 -0.00 0.00 -0.00 -0.00 0.00 -0.00 -0.00 0.00 -0.00 -0.00 0.00 -0.00 -0.00 0.00 -0.00 -0.00 0.00 -0.00 -0.00 0.00 -0.00 -0.00 0.00 -0.00 -0.00 0.00 -0.00 -0.00 0.00 -0.00 -0.00 0.00 -0.00 -0.00 0.00 -0.00 -0.00 0.00 -0.00 -0.00 0.00 -0.00 -0.00 0.00 -0.00 -0.00 0.00 -0.00 -0.00 0.00 -0.00 -0.00 0.00 -0.00 -0.00 0.00 -0.00 -0.00 0.00 -0.00 -0.00 0.00 -0.00 -0.00 0.00 -0.00 -0.00 0.00 -0.00 -0.00 0.00 -0.00 -0.00 0.00 -0.00 -0.00 0.00 -0.00 -0.00 0.00 -0.00 
-24.50 74.84 21.53 0.03 43.39 6.13 -73.25 20.18 -8.03 94.07 15.80 35.10 -6.47 -9.81 -20.66 -0.00 0.00 -0.00 -56.67 -12.11 46.13 88.84 -31.10 -24.77 -23.51 -0.99 -2.74 -0.00 0.00 -0.00 2.42 -2.84 -2.03 2.88 -2.97 -2.40 3.10 -3.21 -2.57 3.10 -3.22 -2.59 -2.38 -4.53 3.44 -2.05 -3.86 2.94 10.95 -1.06 3.23 -40.78 4.90 52.11 51.85 44.92 -45.26 4.04 -4.57 -11.84 29.19 -0.00 -0.01 11.54 -20.71 12.64 10.04 -23.58 25.25 0.00 0.00 -0.00 -0.05 2.00 1.34 -0.47 -0.14 14.57 -0.25 -0.10 7.50 0.00 0.00 -0.00 0.01 0.01 1.02 -0.01 -0.00 12.22 -0.01 -0.00 6.23 0.00 0.00 -0.00 0.04 -2.00 1.09 0.43 0.10 12.78 0.21 0.08 6.52 0.00 0.00 -0.00 0.54 -3.92 7.74 1.71 1.80 38.58 0.56 1.39 22.00 9.63 -17.06 10.82 -53.96 -38.61 -75.56 55.74 -51.16 36.28 6.13 23.10 19.49 16.66 0.06 0.03 7.79 9.13 -18.18 10.49 8.54 -29.27 -0.00 0.00 -0.00 -0.02 -2.00 -0.63 -0.31 0.05 -8.80 -0.15 0.03 -4.44 -0.00 0.00 -0.00 -0.00 0.00 -0.60 0.00 0.00 -8.54 0.01 -0.00 -4.30 -0.00 0.00 -0.00 0.01 2.00 -0.29 0.18 -0.02 -5.00 0.08 -0.01 -2.50 -0.00 0.00 -0.00 0.02 4.01 -0.23 0.28 -0.03 -4.15 0.15 -0.02 -2.07 
-24.50 74.84 21.53 0.03 43.39 6.13 -73.25 20.18 -8.03 94.07 15.80 35.10 -6.47 -9.81 -20.66 -0.00 0.00 -0.00 -56.67 -12.11 46.13 88.84 -31.10 -24.77 -23.51 -0.99 -2.74 -0.00 0.00 -0.00 2.42 -2.84 -2.03 2.88 -2.97 -2.40 3.10 -3.21 -2.57 3.10 -3.22 -2.59 -2.38 -4.54 3.44 -2.04 -3.87 2.93 10.95 -1.06 3.23 -40.77 4.89 52.11 51.87 44.97 -45.25 4.06 -4.60 -11.86 29.20 -0.00 0.00 11.52 -20.72 12.63 10.05 -23.57 25.27 0.00 -0.00 -0.00 -0.04 2.00 1.35 -0.49 -0.14 14.56 -0.24 -0.10 7.49 0.00 -0.00 -0.00 -0.00 -0.00 1.02 0.01 -0.00 12.22 -0.01 0.00 6.23 0.00 -0.00 -0.00 0.04 -2.01 1.10 0.43 0.11 12.77 0.21 0.08 6.53 0.00 -0.00 -0.00 0.55 -3.93 7.75 1.71 1.82 38.58 0.55 1.39 21.99 9.63 -17.06 10.82 -53.96 -38.61 -75.56 55.74 -51.16 36.28 6.13 23.10 19.49 16.66 0.06 0.03 7.79 9.13 -18.18 10.49 8.54 -29.27 -0.00 0.00 -0.00 -0.02 -2.00 -0.63 -0.31 0.05 -8.80 -0.15 0.03 -4.44 -0.00 0.00 -0.00 -0.00 0.00 -0.60 0.00 0.00 -8.54 0.01 -0.00 -4.30 -0.00 0.00 -0.00 0.01 2.00 -0.29 0.18 -0.02 -5.00 0.08 -0.01 -2.50 -0.00 0.00 -0.00 0.02 4.01 -0.23 0.28 -0.03 -4.15 0.15 -0.02 -2.07 
-24.50 74.84 21.53 0.03 43.39 6.13 -73.25 20.18 -8.03 94.07 15.80 35.10 -6.47 -9.81 -20.66 -0.00 0.00 -0.00 -56.67 -12.11 46.13 88.84 -31.10 -24.77 -23.51 -0.99 -2.74 -0.00 0.00 -0.00 2.42 -2.84 -2.03 2.88 -2.97 -2.40 3.10 -3.21 -2.57 3.10 -3.22 -2.59 -2.38 -4.55 3.43 -2.04 -3.88 2.93 10.95 -1.06 3.23 -40.77 4.88 52.08 51.87 45.07 -45.21 4.08 -4.61 -11.95 29.18 -0.00 -0.00 11.53 -20.70 12.62 10.05 -23.58 25.24 0.00 -0.00 -0.00 -0.04 2.00 1.31 -0.48 -0.13 14.38 -0.24 -0.10 7.40 0.00 -0.00 -0.00 -0.00 -0.01 1.02 0.01 0.00 12.23 -0.00 0.01 6.24 0.00 -0.00 -0.00 0.04 -2.00 1.10 0.43 0.11 12.80 0.20 0.09 6.55 0.00 -0.00 -0.00 0.54 -3.93 7.78 1.72 1.82 38.63 0.54 1.40 22.04 9.64 -17.06 10.83 -53.97 -38.61 -75.56 55.74 -51.16 36.28 6.13 23.10 19.49 16.66 0.06 0.03 7.79 9.13 -18.18 10.49 8.54 -29.27 -0.00 0.00 -0.00 -0.02 -2.00 -0.63 -0.31 0.05 -8.80 -0.15 0.03 -4.44 -0.00 0.00 -0.00 -0.00 0.00 -0.60 0.00 0.00 -8.54 0.01 -0.00 -4.30 -0.00 0.00 -0.00 0.01 2.00 -0.29 0.18 -0.02 -5.00 0.08 -0.01 -2.50 -0.00 0.00 -0.00 0.02 4.01 -0.23 0.28 -0.03 -4.15 0.15 -0.02 -2.07 
-24.50 74.85 21.53 0.03 43.39 6.13 -73.25 20.18 -8.03 94.07 15.80 35.10 -6.47 -9.81 -20.66 -0.00 0.00 -0.00 -56.67 -12.11 46.13 88.84 -31.10 -24.77 -23.51 -0.99 -2.74 -0.00 0.00 -0.00 2.42 -2.84 -2.03 2.88 -2.97 -2.40 3.10 -3.21 -2.57 3.10 -3.22 -2.59 -2.38 -4.57 3.43 -2.04 -3.88 2.92 10.95 -1.06 3.22 -40.77 4.86 52.09 51.86 45.10 -45.21 4.10 -4.61 -11.98 29.20 -0.00 0.00 11.54 -20.72 12.64 10.04 -23.57 25.26 -0.00 0.00 -0.00 -0.04 2.00 1.27 -0.47 -0.12 14.04 -0.24 -0.10 7.22 -0.00 0.00 -0.00 0.01 0.00 1.03 -0.00 0.00 12.28 -0.01 -0.01 6.27 -0.00 0.00 -0.00 0.04 -2.00 1.10 0.43 0.11 12.85 0.21 0.08 6.56 -0.00 0.00 -0.00 0.54 -3.93 7.83 1.71 1.82 38.75 0.55 1.40 22.12 9.64 -17.06 10.83 -53.97 -38.61 -75.56 55.74 -51.16 36.28 6.13 23.10 19.49 16.66 0.06 0.03 7.79 9.13 -18.18 10.49 8.54 -29.27 -0.00 0.00 -0.00 -0.02 -2.00 -0.63 -0.31 0.05 -8.80 -0.15 0.03 -4.44 -0.00 0.00 -0.00 -0.00 0.00 -0.60 0.00 0.00 -8.54 0.01 -0.00 -4.30 -0.00 0.00 -0.00 0.01 2.00 -0.29 0.18 -0.02 -5.00 0.08 -0.01 -2.50 -0.00 0.00 -0.00 0.02 4.01 -0.23 0.28 -0.03 -4.15 0.15 -0.02 -2.07 
